<mxfile host="app.diagrams.net" modified="2023-06-16T14:26:24.650Z" agent="Mozilla/5.0 (Windows NT 10.0; Win64; x64) AppleWebKit/537.36 (KHTML, like Gecko) Chrome/114.0.0.0 Safari/537.36" etag="VL0nbbrcJA1KvMY6qxa6" version="21.4.0" type="github">
  <diagram name="Page-1" id="pfQwgoUetdMNrIryv_LP">
    <mxGraphModel dx="1768" dy="395" grid="1" gridSize="10" guides="1" tooltips="1" connect="1" arrows="1" fold="1" page="1" pageScale="1" pageWidth="850" pageHeight="1100" math="0" shadow="0">
      <root>
        <mxCell id="0" />
        <mxCell id="1" parent="0" />
        <mxCell id="viwI2Wx3LTkbJG1gqYJ1-4" value="" style="rounded=0;whiteSpace=wrap;html=1;" parent="1" vertex="1">
          <mxGeometry x="40" y="80" width="1010" height="520" as="geometry" />
        </mxCell>
        <mxCell id="viwI2Wx3LTkbJG1gqYJ1-5" value="" style="endArrow=none;html=1;rounded=0;entryX=1.001;entryY=0.072;entryDx=0;entryDy=0;entryPerimeter=0;" parent="1" target="viwI2Wx3LTkbJG1gqYJ1-4" edge="1">
          <mxGeometry width="50" height="50" relative="1" as="geometry">
            <mxPoint x="40" y="119" as="sourcePoint" />
            <mxPoint x="920" y="120" as="targetPoint" />
          </mxGeometry>
        </mxCell>
        <mxCell id="viwI2Wx3LTkbJG1gqYJ1-6" value="&lt;b style=&quot;border-color: var(--border-color); font-size: 12px;&quot;&gt;&lt;font style=&quot;border-color: var(--border-color); font-size: 18px;&quot;&gt;Drug Service&lt;/font&gt;&lt;/b&gt;" style="text;strokeColor=none;fillColor=none;html=1;fontSize=24;fontStyle=1;verticalAlign=middle;align=center;" parent="1" vertex="1">
          <mxGeometry x="500" y="80" width="100" height="40" as="geometry" />
        </mxCell>
        <mxCell id="viwI2Wx3LTkbJG1gqYJ1-15" value="&lt;font style=&quot;font-size: 13px;&quot;&gt;Bean:&lt;/font&gt;" style="text;html=1;align=center;verticalAlign=middle;resizable=0;points=[];autosize=1;strokeColor=none;fillColor=none;" parent="1" vertex="1">
          <mxGeometry x="10" y="18" width="60" height="30" as="geometry" />
        </mxCell>
        <mxCell id="viwI2Wx3LTkbJG1gqYJ1-16" value="" style="rounded=0;whiteSpace=wrap;html=1;fillColor=#FF33FF;" parent="1" vertex="1">
          <mxGeometry x="65" y="18" width="40" height="20" as="geometry" />
        </mxCell>
        <mxCell id="viwI2Wx3LTkbJG1gqYJ1-20" value="" style="shape=actor;whiteSpace=wrap;html=1;" parent="1" vertex="1">
          <mxGeometry x="-160" y="150" width="40" height="60" as="geometry" />
        </mxCell>
        <mxCell id="viwI2Wx3LTkbJG1gqYJ1-21" value="&lt;font style=&quot;font-size: 14px;&quot;&gt;&lt;b style=&quot;&quot;&gt;HTTP &lt;br&gt;Request&lt;/b&gt;&lt;/font&gt;" style="text;html=1;align=center;verticalAlign=middle;resizable=0;points=[];autosize=1;strokeColor=none;fillColor=none;" parent="1" vertex="1">
          <mxGeometry x="-180" y="205" width="80" height="50" as="geometry" />
        </mxCell>
        <mxCell id="viwI2Wx3LTkbJG1gqYJ1-23" value="&lt;b&gt;&lt;font color=&quot;#ff0000&quot;&gt;multi-tenancy-header:&lt;/font&gt;&lt;br&gt;apim-sub-key&lt;/b&gt;&lt;br&gt;" style="text;html=1;align=center;verticalAlign=middle;resizable=0;points=[];autosize=1;strokeColor=#FFFFFF;fillColor=none;" parent="1" vertex="1">
          <mxGeometry x="-120" y="133" width="150" height="40" as="geometry" />
        </mxCell>
        <mxCell id="viwI2Wx3LTkbJG1gqYJ1-24" value="1. Logging&lt;br&gt;AppName" style="rounded=0;whiteSpace=wrap;html=1;dashed=1;" parent="1" vertex="1">
          <mxGeometry x="-160" y="300" width="80" height="70" as="geometry" />
        </mxCell>
        <mxCell id="viwI2Wx3LTkbJG1gqYJ1-27" value="&lt;font size=&quot;1&quot; color=&quot;#ff33ff&quot;&gt;&lt;b style=&quot;font-size: 13px;&quot;&gt;Controller&lt;/b&gt;&lt;/font&gt;" style="rounded=0;whiteSpace=wrap;html=1;" parent="1" vertex="1">
          <mxGeometry x="347.5" y="180" width="90" height="40" as="geometry" />
        </mxCell>
        <mxCell id="viwI2Wx3LTkbJG1gqYJ1-28" value="&lt;font size=&quot;1&quot; color=&quot;#ff33ff&quot;&gt;&lt;b style=&quot;font-size: 13px;&quot;&gt;Service&lt;/b&gt;&lt;/font&gt;" style="rounded=0;whiteSpace=wrap;html=1;" parent="1" vertex="1">
          <mxGeometry x="350" y="255" width="90" height="40" as="geometry" />
        </mxCell>
        <mxCell id="viwI2Wx3LTkbJG1gqYJ1-30" value="" style="endArrow=classic;html=1;rounded=0;exitX=0.5;exitY=1;exitDx=0;exitDy=0;strokeColor=#3333FF;strokeWidth=2;" parent="1" source="viwI2Wx3LTkbJG1gqYJ1-27" target="viwI2Wx3LTkbJG1gqYJ1-28" edge="1">
          <mxGeometry width="50" height="50" relative="1" as="geometry">
            <mxPoint x="280" y="190" as="sourcePoint" />
            <mxPoint x="360" y="190" as="targetPoint" />
          </mxGeometry>
        </mxCell>
        <mxCell id="viwI2Wx3LTkbJG1gqYJ1-46" value="if not exists" style="text;html=1;strokeColor=none;fillColor=none;align=center;verticalAlign=middle;whiteSpace=wrap;rounded=0;" parent="1" vertex="1">
          <mxGeometry x="710" y="190" width="70" height="30" as="geometry" />
        </mxCell>
        <mxCell id="viwI2Wx3LTkbJG1gqYJ1-47" value="&lt;font style=&quot;font-size: 20px; font-weight: normal;&quot;&gt;1.1&lt;/font&gt;" style="text;strokeColor=none;fillColor=none;html=1;fontSize=24;fontStyle=1;verticalAlign=middle;align=center;" parent="1" vertex="1">
          <mxGeometry x="780" y="210" width="100" height="40" as="geometry" />
        </mxCell>
        <mxCell id="viwI2Wx3LTkbJG1gqYJ1-53" value="extend" style="text;html=1;strokeColor=none;fillColor=default;align=center;verticalAlign=middle;whiteSpace=wrap;rounded=0;fillStyle=hatch;" parent="1" vertex="1">
          <mxGeometry x="460" y="570" width="60" height="30" as="geometry" />
        </mxCell>
        <mxCell id="viwI2Wx3LTkbJG1gqYJ1-54" value="&lt;font style=&quot;font-size: 15px;&quot;&gt;&lt;b&gt;Downstream Service&lt;/b&gt;&lt;/font&gt;" style="rounded=0;whiteSpace=wrap;html=1;strokeWidth=2;" parent="1" vertex="1">
          <mxGeometry x="680" y="620" width="130" height="60" as="geometry" />
        </mxCell>
        <mxCell id="viwI2Wx3LTkbJG1gqYJ1-55" value="" style="endArrow=classic;html=1;rounded=0;strokeColor=#3333FF;strokeWidth=2;entryX=0;entryY=0.5;entryDx=0;entryDy=0;exitX=0.35;exitY=1;exitDx=0;exitDy=0;exitPerimeter=0;edgeStyle=orthogonalEdgeStyle;" parent="1" source="viwI2Wx3LTkbJG1gqYJ1-113" target="viwI2Wx3LTkbJG1gqYJ1-54" edge="1">
          <mxGeometry width="50" height="50" relative="1" as="geometry">
            <mxPoint x="645" y="530" as="sourcePoint" />
            <mxPoint x="850" y="549" as="targetPoint" />
          </mxGeometry>
        </mxCell>
        <mxCell id="viwI2Wx3LTkbJG1gqYJ1-56" value="&lt;font style=&quot;font-size: 20px;&quot;&gt;2&lt;/font&gt;" style="text;strokeColor=none;fillColor=none;html=1;fontSize=24;fontStyle=1;verticalAlign=middle;align=center;" parent="1" vertex="1">
          <mxGeometry x="610" y="550" width="100" height="40" as="geometry" />
        </mxCell>
        <mxCell id="viwI2Wx3LTkbJG1gqYJ1-64" value="&lt;font style=&quot;font-size: 20px;&quot;&gt;1&lt;/font&gt;" style="text;strokeColor=none;fillColor=none;html=1;fontSize=24;fontStyle=1;verticalAlign=middle;align=center;" parent="1" vertex="1">
          <mxGeometry x="470" y="380" width="100" height="40" as="geometry" />
        </mxCell>
        <mxCell id="viwI2Wx3LTkbJG1gqYJ1-73" value="&lt;b style=&quot;border-color: var(--border-color);&quot;&gt;&lt;font color=&quot;#ff33ff&quot; style=&quot;border-color: var(--border-color); font-size: 13px;&quot;&gt;OmlRestClient&lt;/font&gt;&lt;/b&gt;&lt;b&gt;&lt;font color=&quot;#ff00ff&quot;&gt;&lt;br&gt;&lt;/font&gt;&lt;/b&gt;" style="html=1;whiteSpace=wrap;align=center;" parent="1" vertex="1">
          <mxGeometry x="325" y="340" width="100" height="40" as="geometry" />
        </mxCell>
        <mxCell id="viwI2Wx3LTkbJG1gqYJ1-74" value="" style="endArrow=classic;html=1;rounded=0;strokeColor=#3333FF;strokeWidth=2;exitX=0.25;exitY=1;exitDx=0;exitDy=0;" parent="1" source="viwI2Wx3LTkbJG1gqYJ1-28" target="viwI2Wx3LTkbJG1gqYJ1-73" edge="1">
          <mxGeometry width="50" height="50" relative="1" as="geometry">
            <mxPoint x="390" y="270" as="sourcePoint" />
            <mxPoint x="405" y="240" as="targetPoint" />
            <Array as="points" />
          </mxGeometry>
        </mxCell>
        <mxCell id="viwI2Wx3LTkbJG1gqYJ1-79" value="extend" style="text;html=1;strokeColor=none;fillColor=default;align=center;verticalAlign=middle;whiteSpace=wrap;rounded=0;" parent="1" vertex="1">
          <mxGeometry x="880" y="168" width="60" height="30" as="geometry" />
        </mxCell>
        <mxCell id="viwI2Wx3LTkbJG1gqYJ1-85" value="" style="endArrow=classic;html=1;rounded=0;strokeColor=#00CC00;strokeWidth=2;entryX=0;entryY=0.75;entryDx=0;entryDy=0;" parent="1" target="viwI2Wx3LTkbJG1gqYJ1-113" edge="1">
          <mxGeometry width="50" height="50" relative="1" as="geometry">
            <mxPoint x="420" y="490" as="sourcePoint" />
            <mxPoint x="550" y="490" as="targetPoint" />
            <Array as="points" />
          </mxGeometry>
        </mxCell>
        <mxCell id="viwI2Wx3LTkbJG1gqYJ1-91" value="" style="endArrow=classic;html=1;rounded=0;strokeColor=#3333FF;strokeWidth=2;exitX=1;exitY=0.5;exitDx=0;exitDy=0;entryX=-0.011;entryY=0.575;entryDx=0;entryDy=0;entryPerimeter=0;" parent="1" source="viwI2Wx3LTkbJG1gqYJ1-73" target="viwI2Wx3LTkbJG1gqYJ1-113" edge="1">
          <mxGeometry width="50" height="50" relative="1" as="geometry">
            <mxPoint x="438" y="500" as="sourcePoint" />
            <mxPoint x="550" y="460" as="targetPoint" />
            <Array as="points">
              <mxPoint x="470" y="360" />
              <mxPoint x="470" y="470" />
            </Array>
          </mxGeometry>
        </mxCell>
        <mxCell id="viwI2Wx3LTkbJG1gqYJ1-93" value="" style="endArrow=classic;html=1;rounded=0;strokeColor=#3333FF;strokeWidth=2;exitX=0;exitY=0.5;exitDx=0;exitDy=0;entryX=0.202;entryY=-0.02;entryDx=0;entryDy=0;entryPerimeter=0;" parent="1" source="viwI2Wx3LTkbJG1gqYJ1-28" target="582JKUjDpEg-znHrutWc-10" edge="1">
          <mxGeometry width="50" height="50" relative="1" as="geometry">
            <mxPoint x="383" y="280" as="sourcePoint" />
            <mxPoint x="296.0799999999999" y="440" as="targetPoint" />
            <Array as="points">
              <mxPoint x="296" y="275" />
            </Array>
          </mxGeometry>
        </mxCell>
        <mxCell id="viwI2Wx3LTkbJG1gqYJ1-96" value="" style="rounded=0;whiteSpace=wrap;html=1;" parent="1" vertex="1">
          <mxGeometry x="80" y="140" width="190" height="200" as="geometry" />
        </mxCell>
        <mxCell id="viwI2Wx3LTkbJG1gqYJ1-97" value="" style="endArrow=none;html=1;rounded=0;exitX=0;exitY=0.167;exitDx=0;exitDy=0;entryX=0.995;entryY=0.167;entryDx=0;entryDy=0;exitPerimeter=0;entryPerimeter=0;" parent="1" source="viwI2Wx3LTkbJG1gqYJ1-96" target="viwI2Wx3LTkbJG1gqYJ1-96" edge="1">
          <mxGeometry width="50" height="50" relative="1" as="geometry">
            <mxPoint x="690" y="120" as="sourcePoint" />
            <mxPoint x="740" y="70" as="targetPoint" />
          </mxGeometry>
        </mxCell>
        <mxCell id="viwI2Wx3LTkbJG1gqYJ1-98" value="&lt;font style=&quot;font-size: 13px;&quot;&gt;&lt;b&gt;Multi Tenancy Util Lib&lt;/b&gt;&lt;/font&gt;" style="text;html=1;strokeColor=none;fillColor=none;align=center;verticalAlign=middle;whiteSpace=wrap;rounded=0;" parent="1" vertex="1">
          <mxGeometry x="100" y="143" width="150" height="30" as="geometry" />
        </mxCell>
        <mxCell id="viwI2Wx3LTkbJG1gqYJ1-99" value="&lt;font size=&quot;1&quot; color=&quot;#ff33ff&quot;&gt;&lt;b style=&quot;font-size: 13px;&quot;&gt;MultiTenancyFilter&lt;/b&gt;&lt;/font&gt;" style="rounded=0;whiteSpace=wrap;html=1;" parent="1" vertex="1">
          <mxGeometry x="100" y="190" width="150" height="20" as="geometry" />
        </mxCell>
        <mxCell id="viwI2Wx3LTkbJG1gqYJ1-100" value="&lt;b style=&quot;&quot;&gt;&lt;font style=&quot;font-size: 13px;&quot;&gt;WebClientManager&lt;/font&gt;&lt;/b&gt;" style="rounded=0;whiteSpace=wrap;html=1;" parent="1" vertex="1">
          <mxGeometry x="100" y="230" width="150" height="20" as="geometry" />
        </mxCell>
        <mxCell id="viwI2Wx3LTkbJG1gqYJ1-101" value="&lt;b style=&quot;&quot;&gt;&lt;font style=&quot;font-size: 13px;&quot;&gt;BaseMultiTenancyRestClient&lt;/font&gt;&lt;/b&gt;" style="rounded=0;whiteSpace=wrap;html=1;" parent="1" vertex="1">
          <mxGeometry x="85" y="270" width="180" height="20" as="geometry" />
        </mxCell>
        <mxCell id="viwI2Wx3LTkbJG1gqYJ1-102" value="&lt;font size=&quot;1&quot; color=&quot;#ff33ff&quot;&gt;&lt;b style=&quot;font-size: 13px;&quot;&gt;MultiTenancyUtil&lt;/b&gt;&lt;/font&gt;" style="rounded=0;whiteSpace=wrap;html=1;" parent="1" vertex="1">
          <mxGeometry x="85" y="305" width="140" height="20" as="geometry" />
        </mxCell>
        <mxCell id="viwI2Wx3LTkbJG1gqYJ1-104" value="" style="rounded=0;whiteSpace=wrap;html=1;" parent="1" vertex="1">
          <mxGeometry x="510" y="140" width="150" height="120" as="geometry" />
        </mxCell>
        <mxCell id="viwI2Wx3LTkbJG1gqYJ1-105" value="" style="endArrow=none;html=1;rounded=0;exitX=0;exitY=0.25;exitDx=0;exitDy=0;entryX=1;entryY=0.25;entryDx=0;entryDy=0;" parent="1" source="viwI2Wx3LTkbJG1gqYJ1-104" target="viwI2Wx3LTkbJG1gqYJ1-104" edge="1">
          <mxGeometry width="50" height="50" relative="1" as="geometry">
            <mxPoint x="-145" y="650" as="sourcePoint" />
            <mxPoint x="-95" y="600" as="targetPoint" />
          </mxGeometry>
        </mxCell>
        <mxCell id="viwI2Wx3LTkbJG1gqYJ1-106" value="&lt;font style=&quot;font-size: 13px;&quot;&gt;&lt;b&gt;Multi Tenancy Util Lib&lt;/b&gt;&lt;/font&gt;" style="text;html=1;strokeColor=none;fillColor=none;align=center;verticalAlign=middle;whiteSpace=wrap;rounded=0;" parent="1" vertex="1">
          <mxGeometry x="510" y="138" width="150" height="30" as="geometry" />
        </mxCell>
        <mxCell id="viwI2Wx3LTkbJG1gqYJ1-107" value="&lt;b style=&quot;border-color: var(--border-color); color: rgb(255, 0, 0); font-size: x-small;&quot;&gt;&lt;i style=&quot;border-color: var(--border-color); font-size: 12px;&quot;&gt;getWebClient()&lt;/i&gt;&lt;/b&gt;" style="rounded=0;whiteSpace=wrap;html=1;align=left;" parent="1" vertex="1">
          <mxGeometry x="525" y="180" width="120" height="70" as="geometry" />
        </mxCell>
        <mxCell id="viwI2Wx3LTkbJG1gqYJ1-109" value="" style="endArrow=none;html=1;rounded=0;exitX=0;exitY=0.25;exitDx=0;exitDy=0;entryX=1;entryY=0.25;entryDx=0;entryDy=0;" parent="1" source="viwI2Wx3LTkbJG1gqYJ1-107" target="viwI2Wx3LTkbJG1gqYJ1-107" edge="1">
          <mxGeometry width="50" height="50" relative="1" as="geometry">
            <mxPoint x="-120" y="610" as="sourcePoint" />
            <mxPoint x="-70" y="560" as="targetPoint" />
          </mxGeometry>
        </mxCell>
        <mxCell id="viwI2Wx3LTkbJG1gqYJ1-110" value="&lt;b&gt;WebClientManager&lt;/b&gt;" style="text;html=1;strokeColor=none;fillColor=none;align=center;verticalAlign=middle;whiteSpace=wrap;rounded=0;" parent="1" vertex="1">
          <mxGeometry x="555" y="175" width="60" height="30" as="geometry" />
        </mxCell>
        <mxCell id="viwI2Wx3LTkbJG1gqYJ1-113" value="&lt;p style=&quot;margin:0px;margin-top:4px;text-align:center;&quot;&gt;&lt;b&gt;Rest Util Lib&lt;/b&gt;&lt;/p&gt;&lt;hr size=&quot;1&quot;&gt;&lt;div style=&quot;height:2px;&quot;&gt;&lt;/div&gt;" style="verticalAlign=top;align=left;overflow=fill;fontSize=12;fontFamily=Helvetica;html=1;whiteSpace=wrap;" parent="1" vertex="1">
          <mxGeometry x="580" y="400" width="180" height="120" as="geometry" />
        </mxCell>
        <mxCell id="582JKUjDpEg-znHrutWc-1" style="edgeStyle=orthogonalEdgeStyle;rounded=0;orthogonalLoop=1;jettySize=auto;html=1;exitX=0.25;exitY=0;exitDx=0;exitDy=0;strokeWidth=2;strokeColor=#00CC00;" parent="1" source="viwI2Wx3LTkbJG1gqYJ1-114" target="viwI2Wx3LTkbJG1gqYJ1-104" edge="1">
          <mxGeometry relative="1" as="geometry" />
        </mxCell>
        <mxCell id="582JKUjDpEg-znHrutWc-19" value="&lt;font style=&quot;font-size: 20px;&quot;&gt;1&lt;/font&gt;" style="edgeLabel;html=1;align=center;verticalAlign=middle;resizable=0;points=[];" parent="582JKUjDpEg-znHrutWc-1" vertex="1" connectable="0">
          <mxGeometry x="-0.461" y="-2" relative="1" as="geometry">
            <mxPoint as="offset" />
          </mxGeometry>
        </mxCell>
        <mxCell id="viwI2Wx3LTkbJG1gqYJ1-114" value="&lt;p style=&quot;margin:0px;margin-top:4px;text-align:center;&quot;&gt;&lt;b&gt;&lt;font color=&quot;#ff33ff&quot;&gt;RestClient&lt;/font&gt;&lt;/b&gt;&lt;/p&gt;&lt;hr size=&quot;1&quot;&gt;&lt;div style=&quot;height:2px;&quot;&gt;&lt;b&gt;&amp;nbsp;makeRequest() ==&amp;gt;preMakeRequest()&lt;/b&gt;&lt;/div&gt;" style="verticalAlign=top;align=left;overflow=fill;fontSize=12;fontFamily=Helvetica;html=1;whiteSpace=wrap;" parent="1" vertex="1">
          <mxGeometry x="600" y="440" width="142.81" height="60" as="geometry" />
        </mxCell>
        <mxCell id="viwI2Wx3LTkbJG1gqYJ1-115" value="" style="endArrow=classic;html=1;rounded=0;strokeColor=#3333FF;strokeWidth=2;entryX=0.075;entryY=1.029;entryDx=0;entryDy=0;entryPerimeter=0;" parent="1" target="viwI2Wx3LTkbJG1gqYJ1-107" edge="1">
          <mxGeometry width="50" height="50" relative="1" as="geometry">
            <mxPoint x="600" y="450" as="sourcePoint" />
            <mxPoint x="540" y="270" as="targetPoint" />
            <Array as="points">
              <mxPoint x="533" y="450" />
            </Array>
          </mxGeometry>
        </mxCell>
        <mxCell id="viwI2Wx3LTkbJG1gqYJ1-116" value="&lt;font style=&quot;font-size: 13px;&quot;&gt;&lt;b&gt;&lt;font color=&quot;#3333ff&quot;&gt;getWebClient()&lt;/font&gt;&lt;/b&gt; based on&lt;br&gt;&lt;b&gt;apim-sub-key&lt;/b&gt; --&amp;gt; Map&amp;lt;SubKey, EndClient&amp;gt; --&amp;gt; EndClient --&amp;gt; WebClient&lt;/font&gt;" style="text;html=1;align=center;verticalAlign=middle;whiteSpace=wrap;rounded=0;strokeColor=#FFFFFF;glass=0;shadow=0;overflow=visible;fillColor=default;gradientColor=none;" parent="1" vertex="1">
          <mxGeometry x="475" y="315" width="285" height="40" as="geometry" />
        </mxCell>
        <mxCell id="viwI2Wx3LTkbJG1gqYJ1-126" value="" style="endArrow=classic;html=1;rounded=0;dashed=1;exitX=0.75;exitY=0;exitDx=0;exitDy=0;entryX=0.992;entryY=0.114;entryDx=0;entryDy=0;entryPerimeter=0;" parent="1" target="viwI2Wx3LTkbJG1gqYJ1-107" edge="1">
          <mxGeometry width="50" height="50" relative="1" as="geometry">
            <mxPoint x="945" y="265" as="sourcePoint" />
            <mxPoint x="1000" y="210" as="targetPoint" />
            <Array as="points">
              <mxPoint x="945" y="190" />
            </Array>
          </mxGeometry>
        </mxCell>
        <mxCell id="viwI2Wx3LTkbJG1gqYJ1-127" value="" style="endArrow=classic;html=1;rounded=0;strokeColor=#3333FF;strokeWidth=2;exitX=1;exitY=0.5;exitDx=0;exitDy=0;entryX=0.389;entryY=0;entryDx=0;entryDy=0;entryPerimeter=0;" parent="1" source="viwI2Wx3LTkbJG1gqYJ1-107" target="582JKUjDpEg-znHrutWc-12" edge="1">
          <mxGeometry width="50" height="50" relative="1" as="geometry">
            <mxPoint x="655" y="225" as="sourcePoint" />
            <mxPoint x="900" y="265" as="targetPoint" />
            <Array as="points">
              <mxPoint x="900" y="215" />
            </Array>
          </mxGeometry>
        </mxCell>
        <mxCell id="viwI2Wx3LTkbJG1gqYJ1-129" value="&lt;font style=&quot;font-size: 13px;&quot;&gt;&lt;i&gt;&lt;b&gt;static function:&lt;/b&gt;&lt;/i&gt;&lt;/font&gt;" style="text;html=1;align=center;verticalAlign=middle;resizable=0;points=[];autosize=1;strokeColor=none;fillColor=none;" parent="1" vertex="1">
          <mxGeometry x="135" y="18" width="120" height="30" as="geometry" />
        </mxCell>
        <mxCell id="viwI2Wx3LTkbJG1gqYJ1-130" value="" style="rounded=0;whiteSpace=wrap;html=1;fillColor=#FF0000;" parent="1" vertex="1">
          <mxGeometry x="250" y="18" width="40" height="20" as="geometry" />
        </mxCell>
        <mxCell id="viwI2Wx3LTkbJG1gqYJ1-133" value="" style="endArrow=classic;html=1;rounded=0;dashed=1;entryX=1;entryY=0.643;entryDx=0;entryDy=0;strokeWidth=1;exitX=0;exitY=0.75;exitDx=0;exitDy=0;entryPerimeter=0;" parent="1" source="viwI2Wx3LTkbJG1gqYJ1-99" target="viwI2Wx3LTkbJG1gqYJ1-24" edge="1">
          <mxGeometry width="50" height="50" relative="1" as="geometry">
            <mxPoint x="110" y="215" as="sourcePoint" />
            <mxPoint x="-70" y="345" as="targetPoint" />
            <Array as="points">
              <mxPoint x="10" y="205" />
              <mxPoint x="10" y="345" />
            </Array>
          </mxGeometry>
        </mxCell>
        <mxCell id="viwI2Wx3LTkbJG1gqYJ1-134" value="" style="endArrow=classic;html=1;rounded=0;exitX=1;exitY=0.75;exitDx=0;exitDy=0;strokeColor=#3333FF;strokeWidth=2;entryX=0;entryY=0.25;entryDx=0;entryDy=0;" parent="1" source="viwI2Wx3LTkbJG1gqYJ1-20" target="viwI2Wx3LTkbJG1gqYJ1-99" edge="1">
          <mxGeometry width="50" height="50" relative="1" as="geometry">
            <mxPoint x="-114" y="180" as="sourcePoint" />
            <mxPoint x="90" y="180" as="targetPoint" />
          </mxGeometry>
        </mxCell>
        <mxCell id="viwI2Wx3LTkbJG1gqYJ1-135" value="" style="endArrow=classic;html=1;rounded=0;strokeColor=#3333FF;strokeWidth=2;exitX=1;exitY=0.5;exitDx=0;exitDy=0;entryX=0;entryY=0.5;entryDx=0;entryDy=0;" parent="1" source="viwI2Wx3LTkbJG1gqYJ1-99" target="viwI2Wx3LTkbJG1gqYJ1-27" edge="1">
          <mxGeometry width="50" height="50" relative="1" as="geometry">
            <mxPoint x="260" y="210" as="sourcePoint" />
            <mxPoint x="358" y="210" as="targetPoint" />
          </mxGeometry>
        </mxCell>
        <mxCell id="viwI2Wx3LTkbJG1gqYJ1-140" value="" style="endArrow=classic;html=1;rounded=0;dashed=1;entryX=0.839;entryY=1;entryDx=0;entryDy=0;entryPerimeter=0;exitX=0.063;exitY=0.983;exitDx=0;exitDy=0;exitPerimeter=0;edgeStyle=orthogonalEdgeStyle;" parent="1" source="viwI2Wx3LTkbJG1gqYJ1-114" target="viwI2Wx3LTkbJG1gqYJ1-101" edge="1">
          <mxGeometry width="50" height="50" relative="1" as="geometry">
            <mxPoint x="610" y="518" as="sourcePoint" />
            <mxPoint x="236" y="305" as="targetPoint" />
            <Array as="points">
              <mxPoint x="609" y="580" />
              <mxPoint x="236" y="580" />
            </Array>
          </mxGeometry>
        </mxCell>
        <mxCell id="viwI2Wx3LTkbJG1gqYJ1-142" value="&lt;p style=&quot;margin:0px;margin-top:4px;text-align:center;&quot;&gt;&lt;br&gt;&lt;/p&gt;" style="verticalAlign=top;align=left;overflow=fill;fontSize=12;fontFamily=Helvetica;html=1;whiteSpace=wrap;strokeColor=#000000;" parent="1" vertex="1">
          <mxGeometry x="170" y="945" width="815" height="430" as="geometry" />
        </mxCell>
        <mxCell id="viwI2Wx3LTkbJG1gqYJ1-143" value="&lt;p style=&quot;margin:0px;margin-top:4px;text-align:center;&quot;&gt;&lt;b&gt;MultiTenancy Util Lib&lt;/b&gt;&lt;/p&gt;&lt;hr size=&quot;1&quot;&gt;&lt;div style=&quot;height:2px;&quot;&gt;&lt;/div&gt;" style="verticalAlign=top;align=left;overflow=fill;fontSize=12;fontFamily=Helvetica;html=1;whiteSpace=wrap;" parent="1" vertex="1">
          <mxGeometry x="200" y="1025" width="165" height="140" as="geometry" />
        </mxCell>
        <mxCell id="viwI2Wx3LTkbJG1gqYJ1-144" value="&lt;b&gt;&lt;font color=&quot;#ff00ff&quot;&gt;MultiTenancyUtil&lt;/font&gt;&lt;/b&gt;" style="html=1;whiteSpace=wrap;align=center;" parent="1" vertex="1">
          <mxGeometry x="212.5" y="1065" width="140" height="20" as="geometry" />
        </mxCell>
        <mxCell id="viwI2Wx3LTkbJG1gqYJ1-145" value="&lt;p style=&quot;margin:0px;margin-top:4px;text-align:center;&quot;&gt;&lt;b&gt;application.yaml&lt;/b&gt;&lt;/p&gt;&lt;hr size=&quot;1&quot;&gt;&lt;div style=&quot;height:2px;&quot;&gt;- dhp-multi-tenants&lt;/div&gt;" style="verticalAlign=top;align=left;overflow=fill;fontSize=12;fontFamily=Helvetica;html=1;whiteSpace=wrap;" parent="1" vertex="1">
          <mxGeometry x="10" y="1210" width="140" height="50" as="geometry" />
        </mxCell>
        <mxCell id="viwI2Wx3LTkbJG1gqYJ1-146" value="&lt;b&gt;Azure KeyVault&lt;/b&gt;" style="html=1;whiteSpace=wrap;" parent="1" vertex="1">
          <mxGeometry x="25" y="1315" width="110" height="50" as="geometry" />
        </mxCell>
        <mxCell id="viwI2Wx3LTkbJG1gqYJ1-147" value="&lt;font style=&quot;background-color: rgb(255, 51, 255);&quot; color=&quot;#ff33ff&quot;&gt;&amp;nbsp; &amp;nbsp; &amp;nbsp; &amp;nbsp; &amp;nbsp;&amp;nbsp;&lt;/font&gt;" style="text;html=1;align=center;verticalAlign=middle;resizable=0;points=[];autosize=1;strokeColor=none;fillColor=none;" parent="1" vertex="1">
          <mxGeometry x="140" y="910" width="60" height="30" as="geometry" />
        </mxCell>
        <mxCell id="viwI2Wx3LTkbJG1gqYJ1-148" value="&lt;font style=&quot;font-size: 13px;&quot;&gt;Bean:&lt;/font&gt;" style="text;html=1;align=center;verticalAlign=middle;resizable=0;points=[];autosize=1;strokeColor=none;fillColor=none;" parent="1" vertex="1">
          <mxGeometry x="95" y="910" width="60" height="30" as="geometry" />
        </mxCell>
        <mxCell id="viwI2Wx3LTkbJG1gqYJ1-149" value="" style="endArrow=classic;html=1;rounded=0;exitX=0;exitY=0.5;exitDx=0;exitDy=0;dashed=1;" parent="1" source="viwI2Wx3LTkbJG1gqYJ1-144" target="viwI2Wx3LTkbJG1gqYJ1-145" edge="1">
          <mxGeometry width="50" height="50" relative="1" as="geometry">
            <mxPoint x="80" y="1045" as="sourcePoint" />
            <mxPoint x="130" y="995" as="targetPoint" />
            <Array as="points">
              <mxPoint x="80" y="1075" />
            </Array>
          </mxGeometry>
        </mxCell>
        <mxCell id="viwI2Wx3LTkbJG1gqYJ1-150" value="parse multi&lt;br style=&quot;border-color: var(--border-color); font-size: 11px;&quot;&gt;&lt;span style=&quot;font-size: 11px; background-color: rgb(255, 255, 255);&quot;&gt;tenancy&lt;/span&gt;&lt;br style=&quot;border-color: var(--border-color); font-size: 11px;&quot;&gt;&lt;span style=&quot;font-size: 11px; background-color: rgb(255, 255, 255);&quot;&gt;json config to a&lt;/span&gt;&lt;br style=&quot;border-color: var(--border-color); font-size: 11px;&quot;&gt;&lt;span style=&quot;font-size: 11px; background-color: rgb(255, 255, 255);&quot;&gt;Map&amp;lt;SubScriptionKey, EndClient&amp;gt;&amp;nbsp;&lt;/span&gt;&lt;br style=&quot;border-color: var(--border-color); font-size: 11px;&quot;&gt;&lt;span style=&quot;font-size: 11px; background-color: rgb(255, 255, 255);&quot;&gt;when starting up&lt;/span&gt;&lt;br style=&quot;border-color: var(--border-color); font-size: 11px;&quot;&gt;&lt;span style=&quot;font-size: 11px; background-color: rgb(255, 255, 255);&quot;&gt;the service&lt;/span&gt;" style="text;html=1;strokeColor=none;fillColor=default;align=center;verticalAlign=middle;whiteSpace=wrap;rounded=0;" parent="1" vertex="1">
          <mxGeometry x="-20" y="1085" width="180" height="100" as="geometry" />
        </mxCell>
        <mxCell id="viwI2Wx3LTkbJG1gqYJ1-151" value="" style="endArrow=classic;html=1;rounded=0;entryX=0.5;entryY=0;entryDx=0;entryDy=0;exitX=0.5;exitY=1;exitDx=0;exitDy=0;dashed=1;" parent="1" source="viwI2Wx3LTkbJG1gqYJ1-145" target="viwI2Wx3LTkbJG1gqYJ1-146" edge="1">
          <mxGeometry width="50" height="50" relative="1" as="geometry">
            <mxPoint x="-70" y="1375" as="sourcePoint" />
            <mxPoint x="-20" y="1325" as="targetPoint" />
          </mxGeometry>
        </mxCell>
        <mxCell id="viwI2Wx3LTkbJG1gqYJ1-152" value="" style="rounded=0;whiteSpace=wrap;html=1;" parent="1" vertex="1">
          <mxGeometry x="790" y="1025" width="160" height="130" as="geometry" />
        </mxCell>
        <mxCell id="viwI2Wx3LTkbJG1gqYJ1-153" value="&lt;font style=&quot;font-size: 13px;&quot;&gt;&lt;b&gt;Multi Tenancy Util Lib&lt;/b&gt;&lt;/font&gt;" style="text;html=1;strokeColor=none;fillColor=none;align=center;verticalAlign=middle;whiteSpace=wrap;rounded=0;" parent="1" vertex="1">
          <mxGeometry x="795" y="1025" width="150" height="30" as="geometry" />
        </mxCell>
        <mxCell id="viwI2Wx3LTkbJG1gqYJ1-154" value="&lt;b style=&quot;border-color: var(--border-color); color: rgb(255, 0, 0);&quot;&gt;&lt;i style=&quot;border-color: var(--border-color);&quot;&gt;createNewWebClient()&lt;/i&gt;&lt;/b&gt;" style="rounded=0;whiteSpace=wrap;html=1;align=left;" parent="1" vertex="1">
          <mxGeometry x="800" y="1065" width="140" height="80" as="geometry" />
        </mxCell>
        <mxCell id="viwI2Wx3LTkbJG1gqYJ1-155" value="&lt;b&gt;WebClientManager&lt;/b&gt;" style="text;html=1;strokeColor=none;fillColor=none;align=center;verticalAlign=middle;whiteSpace=wrap;rounded=0;" parent="1" vertex="1">
          <mxGeometry x="840" y="1065" width="60" height="30" as="geometry" />
        </mxCell>
        <mxCell id="viwI2Wx3LTkbJG1gqYJ1-156" value="" style="endArrow=none;html=1;rounded=0;exitX=0;exitY=0.25;exitDx=0;exitDy=0;entryX=1;entryY=0.25;entryDx=0;entryDy=0;" parent="1" source="viwI2Wx3LTkbJG1gqYJ1-152" target="viwI2Wx3LTkbJG1gqYJ1-152" edge="1">
          <mxGeometry width="50" height="50" relative="1" as="geometry">
            <mxPoint x="670" y="1155" as="sourcePoint" />
            <mxPoint x="720" y="1105" as="targetPoint" />
          </mxGeometry>
        </mxCell>
        <mxCell id="viwI2Wx3LTkbJG1gqYJ1-157" value="" style="endArrow=none;html=1;rounded=0;exitX=0;exitY=0.25;exitDx=0;exitDy=0;entryX=1;entryY=0.25;entryDx=0;entryDy=0;" parent="1" source="viwI2Wx3LTkbJG1gqYJ1-154" target="viwI2Wx3LTkbJG1gqYJ1-154" edge="1">
          <mxGeometry width="50" height="50" relative="1" as="geometry">
            <mxPoint x="430" y="1245" as="sourcePoint" />
            <mxPoint x="480" y="1195" as="targetPoint" />
          </mxGeometry>
        </mxCell>
        <mxCell id="viwI2Wx3LTkbJG1gqYJ1-158" value="&lt;div style=&quot;&quot;&gt;&lt;b style=&quot;background-color: initial; border-color: var(--border-color);&quot;&gt;&lt;font style=&quot;border-color: var(--border-color); font-size: 13px;&quot;&gt;createWebClient()&lt;/font&gt;&lt;/b&gt;&lt;/div&gt;" style="rounded=0;whiteSpace=wrap;html=1;align=left;" parent="1" vertex="1">
          <mxGeometry x="770" y="1230" width="190" height="100" as="geometry" />
        </mxCell>
        <mxCell id="viwI2Wx3LTkbJG1gqYJ1-159" value="" style="endArrow=none;html=1;rounded=0;exitX=0;exitY=0.25;exitDx=0;exitDy=0;entryX=1;entryY=0.25;entryDx=0;entryDy=0;" parent="1" source="viwI2Wx3LTkbJG1gqYJ1-158" target="viwI2Wx3LTkbJG1gqYJ1-158" edge="1">
          <mxGeometry width="50" height="50" relative="1" as="geometry">
            <mxPoint x="840" y="1300" as="sourcePoint" />
            <mxPoint x="890" y="1250" as="targetPoint" />
          </mxGeometry>
        </mxCell>
        <mxCell id="viwI2Wx3LTkbJG1gqYJ1-160" value="&lt;b&gt;OmlWebClientManagerConfig&lt;/b&gt;" style="text;html=1;strokeColor=none;fillColor=none;align=center;verticalAlign=middle;whiteSpace=wrap;rounded=0;" parent="1" vertex="1">
          <mxGeometry x="835" y="1230" width="60" height="30" as="geometry" />
        </mxCell>
        <mxCell id="viwI2Wx3LTkbJG1gqYJ1-161" value="" style="endArrow=classic;html=1;rounded=0;exitX=1;exitY=0.5;exitDx=0;exitDy=0;entryX=1;entryY=0.5;entryDx=0;entryDy=0;strokeWidth=2;" parent="1" source="viwI2Wx3LTkbJG1gqYJ1-154" target="viwI2Wx3LTkbJG1gqYJ1-158" edge="1">
          <mxGeometry width="50" height="50" relative="1" as="geometry">
            <mxPoint x="430" y="1245" as="sourcePoint" />
            <mxPoint x="480" y="1195" as="targetPoint" />
            <Array as="points">
              <mxPoint x="1010" y="1105" />
              <mxPoint x="1010" y="1280" />
            </Array>
          </mxGeometry>
        </mxCell>
        <mxCell id="viwI2Wx3LTkbJG1gqYJ1-162" value="&lt;b style=&quot;border-color: var(--border-color);&quot;&gt;&lt;font style=&quot;font-size: 18px; border-color: var(--border-color);&quot;&gt;Drug Service &lt;br&gt;&lt;/font&gt;&lt;font color=&quot;#3333ff&quot; style=&quot;border-color: var(--border-color); font-size: 15px;&quot;&gt;(starting up the app)&lt;/font&gt;&lt;/b&gt;" style="text;strokeColor=none;fillColor=none;html=1;fontSize=24;fontStyle=1;verticalAlign=middle;align=center;" parent="1" vertex="1">
          <mxGeometry x="550" y="955" width="100" height="40" as="geometry" />
        </mxCell>
        <mxCell id="viwI2Wx3LTkbJG1gqYJ1-163" value="" style="endArrow=none;html=1;rounded=0;entryX=1.002;entryY=0.142;entryDx=0;entryDy=0;entryPerimeter=0;" parent="1" target="viwI2Wx3LTkbJG1gqYJ1-142" edge="1">
          <mxGeometry width="50" height="50" relative="1" as="geometry">
            <mxPoint x="170" y="1005" as="sourcePoint" />
            <mxPoint x="480" y="1195" as="targetPoint" />
          </mxGeometry>
        </mxCell>
        <mxCell id="viwI2Wx3LTkbJG1gqYJ1-164" value="&lt;div style=&quot;&quot;&gt;&lt;b style=&quot;background-color: initial; border-color: var(--border-color);&quot;&gt;&lt;font color=&quot;#ff33ff&quot; style=&quot;border-color: var(--border-color); font-size: 13px;&quot;&gt;@Bean&lt;/font&gt;&lt;/b&gt;&lt;/div&gt;&lt;div style=&quot;&quot;&gt;&lt;b style=&quot;background-color: initial; border-color: var(--border-color);&quot;&gt;&lt;font color=&quot;#ff33ff&quot; style=&quot;border-color: var(--border-color); font-size: 13px;&quot;&gt;webClientOml()&lt;/font&gt;&lt;/b&gt;&lt;/div&gt;" style="rounded=0;whiteSpace=wrap;html=1;align=left;" parent="1" vertex="1">
          <mxGeometry x="430" y="1055" width="160" height="100" as="geometry" />
        </mxCell>
        <mxCell id="viwI2Wx3LTkbJG1gqYJ1-165" value="" style="endArrow=none;html=1;rounded=0;exitX=0;exitY=0.25;exitDx=0;exitDy=0;entryX=1;entryY=0.25;entryDx=0;entryDy=0;" parent="1" source="viwI2Wx3LTkbJG1gqYJ1-164" target="viwI2Wx3LTkbJG1gqYJ1-164" edge="1">
          <mxGeometry width="50" height="50" relative="1" as="geometry">
            <mxPoint x="570" y="1115" as="sourcePoint" />
            <mxPoint x="620" y="1065" as="targetPoint" />
          </mxGeometry>
        </mxCell>
        <mxCell id="viwI2Wx3LTkbJG1gqYJ1-166" value="&lt;b&gt;WebClientConfig&lt;/b&gt;" style="text;html=1;strokeColor=none;fillColor=none;align=center;verticalAlign=middle;whiteSpace=wrap;rounded=0;" parent="1" vertex="1">
          <mxGeometry x="480" y="1055" width="60" height="30" as="geometry" />
        </mxCell>
        <mxCell id="viwI2Wx3LTkbJG1gqYJ1-167" value="" style="endArrow=classic;html=1;rounded=0;entryX=0;entryY=0.5;entryDx=0;entryDy=0;strokeWidth=2;exitX=1;exitY=0.5;exitDx=0;exitDy=0;" parent="1" source="viwI2Wx3LTkbJG1gqYJ1-164" target="viwI2Wx3LTkbJG1gqYJ1-154" edge="1">
          <mxGeometry width="50" height="50" relative="1" as="geometry">
            <mxPoint x="650" y="1105" as="sourcePoint" />
            <mxPoint x="670" y="1185" as="targetPoint" />
          </mxGeometry>
        </mxCell>
        <mxCell id="viwI2Wx3LTkbJG1gqYJ1-168" value="create an unused webClient to cache for reuse later when create new webClient for an endClient" style="text;html=1;strokeColor=none;fillColor=default;align=center;verticalAlign=middle;whiteSpace=wrap;rounded=0;" parent="1" vertex="1">
          <mxGeometry x="620" y="1065" width="150" height="70" as="geometry" />
        </mxCell>
        <mxCell id="viwI2Wx3LTkbJG1gqYJ1-169" style="edgeStyle=orthogonalEdgeStyle;rounded=0;orthogonalLoop=1;jettySize=auto;html=1;exitX=0.5;exitY=1;exitDx=0;exitDy=0;" parent="1" source="viwI2Wx3LTkbJG1gqYJ1-144" target="viwI2Wx3LTkbJG1gqYJ1-144" edge="1">
          <mxGeometry relative="1" as="geometry" />
        </mxCell>
        <mxCell id="viwI2Wx3LTkbJG1gqYJ1-170" value="&lt;font style=&quot;font-size: 13px;&quot;&gt;&lt;i&gt;&lt;b&gt;static function:&lt;/b&gt;&lt;/i&gt;&lt;/font&gt;" style="text;html=1;align=center;verticalAlign=middle;resizable=0;points=[];autosize=1;strokeColor=none;fillColor=none;" parent="1" vertex="1">
          <mxGeometry x="230" y="910" width="120" height="30" as="geometry" />
        </mxCell>
        <mxCell id="viwI2Wx3LTkbJG1gqYJ1-171" value="" style="rounded=0;whiteSpace=wrap;html=1;fillColor=#FF0000;" parent="1" vertex="1">
          <mxGeometry x="345" y="915" width="40" height="15" as="geometry" />
        </mxCell>
        <mxCell id="582JKUjDpEg-znHrutWc-10" value="&lt;p style=&quot;margin:0px;margin-top:4px;text-align:center;&quot;&gt;&lt;b&gt;Core API Util Lib&lt;/b&gt;&lt;/p&gt;&lt;hr size=&quot;1&quot;&gt;&lt;div style=&quot;height:2px;&quot;&gt;&lt;/div&gt;" style="verticalAlign=top;align=left;overflow=fill;fontSize=12;fontFamily=Helvetica;html=1;whiteSpace=wrap;" parent="1" vertex="1">
          <mxGeometry x="265" y="450" width="160" height="110" as="geometry" />
        </mxCell>
        <mxCell id="582JKUjDpEg-znHrutWc-11" value="&lt;p style=&quot;margin:0px;margin-top:4px;text-align:center;&quot;&gt;&lt;b&gt;&lt;font color=&quot;#ff33ff&quot;&gt;MemberRestClient&lt;/font&gt;&lt;/b&gt;&lt;/p&gt;&lt;hr size=&quot;1&quot;&gt;&lt;div style=&quot;height:2px;&quot;&gt;&lt;font style=&quot;border-color: var(--border-color); text-align: center;&quot; color=&quot;#ff0000&quot;&gt;&amp;nbsp;restClient&lt;/font&gt;.&lt;b style=&quot;border-color: var(--border-color); text-align: center;&quot;&gt;invokeApi()&lt;/b&gt;&lt;/div&gt;" style="verticalAlign=top;align=left;overflow=fill;fontSize=12;fontFamily=Helvetica;html=1;whiteSpace=wrap;" parent="1" vertex="1">
          <mxGeometry x="275" y="480" width="140" height="70" as="geometry" />
        </mxCell>
        <mxCell id="582JKUjDpEg-znHrutWc-12" value="&lt;p style=&quot;margin:0px;margin-top:4px;text-align:center;&quot;&gt;&lt;/p&gt;&lt;span style=&quot;border-color: var(--border-color); text-align: center;&quot;&gt;&lt;b&gt;&amp;nbsp;OmlWebClientManagerConfig&lt;/b&gt;&lt;br&gt;&lt;/span&gt;&lt;hr size=&quot;1&quot;&gt;&lt;div style=&quot;height:2px;&quot;&gt;&amp;nbsp;&lt;/div&gt;&lt;b style=&quot;border-color: var(--border-color); background-color: initial;&quot;&gt;&lt;font style=&quot;border-color: var(--border-color); font-size: 13px;&quot;&gt;&amp;nbsp;&lt;/font&gt;&lt;font style=&quot;border-color: var(--border-color); font-size: 12px;&quot;&gt;createWebClient()&lt;/font&gt;&lt;/b&gt;" style="verticalAlign=top;align=left;overflow=fill;fontSize=12;fontFamily=Helvetica;html=1;whiteSpace=wrap;" parent="1" vertex="1">
          <mxGeometry x="830" y="270" width="180" height="60" as="geometry" />
        </mxCell>
        <mxCell id="582JKUjDpEg-znHrutWc-13" value="&lt;p style=&quot;margin:0px;margin-top:4px;text-align:center;&quot;&gt;&lt;b&gt;Core API Util Lib&lt;/b&gt;&lt;/p&gt;&lt;hr size=&quot;1&quot;&gt;&lt;div style=&quot;height:2px;&quot;&gt;&lt;/div&gt;" style="verticalAlign=top;align=left;overflow=fill;fontSize=12;fontFamily=Helvetica;html=1;whiteSpace=wrap;" parent="1" vertex="1">
          <mxGeometry x="830" y="345" width="170" height="110" as="geometry" />
        </mxCell>
        <mxCell id="582JKUjDpEg-znHrutWc-20" style="edgeStyle=orthogonalEdgeStyle;rounded=0;orthogonalLoop=1;jettySize=auto;html=1;exitX=1;exitY=0.5;exitDx=0;exitDy=0;entryX=1.042;entryY=0.143;entryDx=0;entryDy=0;entryPerimeter=0;dashed=1;" parent="1" source="582JKUjDpEg-znHrutWc-14" target="viwI2Wx3LTkbJG1gqYJ1-107" edge="1">
          <mxGeometry relative="1" as="geometry">
            <Array as="points">
              <mxPoint x="1030" y="410" />
              <mxPoint x="1030" y="190" />
            </Array>
          </mxGeometry>
        </mxCell>
        <mxCell id="582JKUjDpEg-znHrutWc-14" value="&lt;p style=&quot;margin:0px;margin-top:4px;text-align:center;&quot;&gt;&lt;b&gt;CoreWebClientManager&lt;/b&gt;&lt;/p&gt;&lt;hr size=&quot;1&quot;&gt;&lt;div style=&quot;height:2px;&quot;&gt;&lt;/div&gt;&lt;b style=&quot;border-color: var(--border-color); background-color: initial;&quot;&gt;&lt;font style=&quot;border-color: var(--border-color);&quot;&gt;&lt;span style=&quot;font-size: 13px;&quot;&gt;&amp;nbsp;&lt;/span&gt;createWebClient()&lt;/font&gt;&lt;/b&gt;&lt;div style=&quot;height:2px;&quot;&gt;&lt;br&gt;&lt;/div&gt;" style="verticalAlign=top;align=left;overflow=fill;fontSize=12;fontFamily=Helvetica;html=1;whiteSpace=wrap;" parent="1" vertex="1">
          <mxGeometry x="849" y="375" width="140" height="70" as="geometry" />
        </mxCell>
        <mxCell id="582JKUjDpEg-znHrutWc-16" style="edgeStyle=orthogonalEdgeStyle;rounded=0;orthogonalLoop=1;jettySize=auto;html=1;exitX=1;exitY=0.75;exitDx=0;exitDy=0;entryX=0;entryY=0.25;entryDx=0;entryDy=0;strokeWidth=2;strokeColor=#00CC00;" parent="1" source="viwI2Wx3LTkbJG1gqYJ1-107" target="582JKUjDpEg-znHrutWc-14" edge="1">
          <mxGeometry relative="1" as="geometry">
            <Array as="points">
              <mxPoint x="800" y="233" />
              <mxPoint x="800" y="393" />
            </Array>
          </mxGeometry>
        </mxCell>
        <mxCell id="582JKUjDpEg-znHrutWc-18" value="&lt;font style=&quot;font-size: 20px;&quot;&gt;1.1&lt;/font&gt;" style="edgeLabel;html=1;align=center;verticalAlign=middle;resizable=0;points=[];" parent="582JKUjDpEg-znHrutWc-16" vertex="1" connectable="0">
          <mxGeometry x="0.3394" y="-5" relative="1" as="geometry">
            <mxPoint as="offset" />
          </mxGeometry>
        </mxCell>
      </root>
    </mxGraphModel>
  </diagram>
</mxfile>
